<mxfile host="app.diagrams.net" agent="Mozilla/5.0 (Macintosh; Intel Mac OS X 10_15_7) AppleWebKit/537.36 (KHTML, like Gecko) Chrome/136.0.0.0 Safari/537.36" version="27.0.9">
  <diagram name="Page-1" id="7R7ulg5M2vc_khv-GZRt">
    <mxGraphModel dx="2276" dy="1872" grid="1" gridSize="10" guides="1" tooltips="1" connect="1" arrows="1" fold="1" page="1" pageScale="1" pageWidth="850" pageHeight="1100" math="0" shadow="0">
      <root>
        <mxCell id="0" />
        <mxCell id="1" parent="0" />
        <mxCell id="v-tDvrIkVeG2lgE-9QKy-2" value="Synthetic data" style="shape=cylinder3;whiteSpace=wrap;html=1;boundedLbl=1;backgroundOutline=1;size=15;fontSize=18;" parent="1" vertex="1">
          <mxGeometry x="540" y="-55" width="80" height="80" as="geometry" />
        </mxCell>
        <mxCell id="v-tDvrIkVeG2lgE-9QKy-3" value="&lt;b&gt;&lt;font style=&quot;font-size: 25px;&quot;&gt;TempoBench&lt;/font&gt;&lt;/b&gt;" style="rounded=0;whiteSpace=wrap;html=1;verticalAlign=middle;horizontal=1;labelPosition=left;verticalLabelPosition=middle;align=right;" parent="1" vertex="1">
          <mxGeometry x="150" y="150" width="480" height="370" as="geometry" />
        </mxCell>
        <mxCell id="v-tDvrIkVeG2lgE-9QKy-4" value="" style="shape=cylinder3;whiteSpace=wrap;html=1;boundedLbl=1;backgroundOutline=1;size=15;" parent="1" vertex="1">
          <mxGeometry x="170" y="160" width="80" height="90" as="geometry" />
        </mxCell>
        <mxCell id="v-tDvrIkVeG2lgE-9QKy-6" value="JSON metric results" style="shape=note;whiteSpace=wrap;html=1;backgroundOutline=1;darkOpacity=0.05;fontSize=17;" parent="1" vertex="1">
          <mxGeometry x="450" y="640" width="100" height="110" as="geometry" />
        </mxCell>
        <mxCell id="v-tDvrIkVeG2lgE-9QKy-9" value="" style="verticalLabelPosition=bottom;verticalAlign=top;html=1;shape=mxgraph.basic.frame;dx=10;whiteSpace=wrap;" parent="1" vertex="1">
          <mxGeometry x="220" y="640" width="170" height="110" as="geometry" />
        </mxCell>
        <mxCell id="v-tDvrIkVeG2lgE-9QKy-10" value="Visualizations" style="text;html=1;align=center;verticalAlign=middle;resizable=0;points=[];autosize=1;strokeColor=none;fillColor=none;fontSize=17;" parent="1" vertex="1">
          <mxGeometry x="240" y="680" width="130" height="30" as="geometry" />
        </mxCell>
        <mxCell id="v-tDvrIkVeG2lgE-9QKy-12" value="&lt;font&gt;1: Train a generative model with a &lt;i&gt;TempoBench&lt;/i&gt; data set&amp;nbsp;&lt;/font&gt;" style="text;html=1;align=center;verticalAlign=middle;resizable=0;points=[];autosize=1;strokeColor=none;fillColor=none;fontSize=18;" parent="1" vertex="1">
          <mxGeometry x="-10" y="-95" width="480" height="40" as="geometry" />
        </mxCell>
        <mxCell id="v-tDvrIkVeG2lgE-9QKy-13" value="4: &lt;i&gt;TempoBench&lt;/i&gt; computes metrics and visualizations" style="text;html=1;align=center;verticalAlign=middle;resizable=0;points=[];autosize=1;strokeColor=none;fillColor=none;fontSize=18;" parent="1" vertex="1">
          <mxGeometry x="170" y="260" width="440" height="40" as="geometry" />
        </mxCell>
        <mxCell id="v-tDvrIkVeG2lgE-9QKy-14" value="5: &lt;i&gt;TempoBench&lt;/i&gt;&amp;nbsp;metric and visualization results" style="text;html=1;align=center;verticalAlign=middle;resizable=0;points=[];autosize=1;strokeColor=none;fillColor=none;fontSize=17;" parent="1" vertex="1">
          <mxGeometry x="10" y="535" width="380" height="30" as="geometry" />
        </mxCell>
        <mxCell id="1hxr5BAmj0VXV3kwIrot-1" value="" style="shape=cylinder3;whiteSpace=wrap;html=1;boundedLbl=1;backgroundOutline=1;size=15;" parent="1" vertex="1">
          <mxGeometry x="180" y="160" width="80" height="90" as="geometry" />
        </mxCell>
        <mxCell id="1hxr5BAmj0VXV3kwIrot-2" value="Ground truth data sets&amp;nbsp;" style="shape=cylinder3;whiteSpace=wrap;html=1;boundedLbl=1;backgroundOutline=1;size=15;fontSize=17;" parent="1" vertex="1">
          <mxGeometry x="190" y="160" width="80" height="90" as="geometry" />
        </mxCell>
        <mxCell id="1hxr5BAmj0VXV3kwIrot-4" value="Category 1" style="swimlane;whiteSpace=wrap;html=1;fontSize=16;" parent="1" vertex="1">
          <mxGeometry x="170" y="300" width="120" height="170" as="geometry" />
        </mxCell>
        <mxCell id="1hxr5BAmj0VXV3kwIrot-3" value="&lt;font&gt;n metrics&lt;/font&gt;" style="sketch=0;outlineConnect=0;fontColor=#232F3E;gradientColor=none;fillColor=#232F3D;strokeColor=none;dashed=0;verticalLabelPosition=top;verticalAlign=bottom;align=center;html=1;fontSize=16;fontStyle=0;aspect=fixed;pointerEvents=1;shape=mxgraph.aws4.gear;labelPosition=center;" parent="1hxr5BAmj0VXV3kwIrot-4" vertex="1">
          <mxGeometry x="43" y="45" width="34" height="34" as="geometry" />
        </mxCell>
        <mxCell id="1hxr5BAmj0VXV3kwIrot-10" value="m visualizations" style="shape=image;html=1;verticalAlign=bottom;verticalLabelPosition=top;labelBackgroundColor=#ffffff;imageAspect=0;aspect=fixed;image=https://cdn4.iconfinder.com/data/icons/evil-icons-user-interface/64/picture-128.png;labelPosition=center;align=center;fontSize=16;" parent="1hxr5BAmj0VXV3kwIrot-4" vertex="1">
          <mxGeometry x="35" y="120" width="50" height="50" as="geometry" />
        </mxCell>
        <mxCell id="1hxr5BAmj0VXV3kwIrot-11" value="Category 2" style="swimlane;whiteSpace=wrap;html=1;fontSize=16;" parent="1" vertex="1">
          <mxGeometry x="330" y="300" width="120" height="170" as="geometry" />
        </mxCell>
        <mxCell id="1hxr5BAmj0VXV3kwIrot-12" value="n metrics" style="sketch=0;outlineConnect=0;fontColor=#232F3E;gradientColor=none;fillColor=#232F3D;strokeColor=none;dashed=0;verticalLabelPosition=top;verticalAlign=bottom;align=center;html=1;fontSize=16;fontStyle=0;aspect=fixed;pointerEvents=1;shape=mxgraph.aws4.gear;labelPosition=center;" parent="1hxr5BAmj0VXV3kwIrot-11" vertex="1">
          <mxGeometry x="43" y="45" width="34" height="34" as="geometry" />
        </mxCell>
        <mxCell id="1hxr5BAmj0VXV3kwIrot-13" value="m visualizations" style="shape=image;html=1;verticalAlign=bottom;verticalLabelPosition=top;labelBackgroundColor=#ffffff;imageAspect=0;aspect=fixed;image=https://cdn4.iconfinder.com/data/icons/evil-icons-user-interface/64/picture-128.png;labelPosition=center;align=center;fontSize=16;" parent="1hxr5BAmj0VXV3kwIrot-11" vertex="1">
          <mxGeometry x="35" y="120" width="50" height="50" as="geometry" />
        </mxCell>
        <mxCell id="1hxr5BAmj0VXV3kwIrot-14" value="Category i" style="swimlane;whiteSpace=wrap;html=1;fontSize=16;" parent="1" vertex="1">
          <mxGeometry x="490" y="300" width="120" height="170" as="geometry" />
        </mxCell>
        <mxCell id="1hxr5BAmj0VXV3kwIrot-15" value="n metrics" style="sketch=0;outlineConnect=0;fontColor=#232F3E;gradientColor=none;fillColor=#232F3D;strokeColor=none;dashed=0;verticalLabelPosition=top;verticalAlign=bottom;align=center;html=1;fontSize=16;fontStyle=0;aspect=fixed;pointerEvents=1;shape=mxgraph.aws4.gear;labelPosition=center;" parent="1hxr5BAmj0VXV3kwIrot-14" vertex="1">
          <mxGeometry x="43" y="45" width="34" height="34" as="geometry" />
        </mxCell>
        <mxCell id="1hxr5BAmj0VXV3kwIrot-16" value="m visualizations" style="shape=image;html=1;verticalAlign=bottom;verticalLabelPosition=top;labelBackgroundColor=#ffffff;imageAspect=0;aspect=fixed;image=https://cdn4.iconfinder.com/data/icons/evil-icons-user-interface/64/picture-128.png;labelPosition=center;align=center;fontSize=16;" parent="1hxr5BAmj0VXV3kwIrot-14" vertex="1">
          <mxGeometry x="35" y="120" width="50" height="50" as="geometry" />
        </mxCell>
        <mxCell id="1hxr5BAmj0VXV3kwIrot-18" value="..." style="text;html=1;align=center;verticalAlign=middle;whiteSpace=wrap;rounded=0;" parent="1hxr5BAmj0VXV3kwIrot-14" vertex="1">
          <mxGeometry x="-50" y="60" width="60" height="30" as="geometry" />
        </mxCell>
        <mxCell id="1hxr5BAmj0VXV3kwIrot-19" value="" style="sketch=0;outlineConnect=0;fontColor=#232F3E;gradientColor=none;fillColor=#01A88D;strokeColor=none;dashed=0;verticalLabelPosition=bottom;verticalAlign=top;align=center;html=1;fontSize=12;fontStyle=0;aspect=fixed;pointerEvents=1;shape=mxgraph.aws4.sagemaker_model;" parent="1" vertex="1">
          <mxGeometry x="191" y="-50" width="78" height="78" as="geometry" />
        </mxCell>
        <mxCell id="1hxr5BAmj0VXV3kwIrot-21" style="edgeStyle=orthogonalEdgeStyle;rounded=0;orthogonalLoop=1;jettySize=auto;html=1;" parent="1" source="1hxr5BAmj0VXV3kwIrot-19" edge="1">
          <mxGeometry relative="1" as="geometry">
            <mxPoint x="229.54" y="30" as="sourcePoint" />
            <mxPoint x="230" y="150" as="targetPoint" />
            <Array as="points" />
          </mxGeometry>
        </mxCell>
        <mxCell id="1hxr5BAmj0VXV3kwIrot-24" value="2: Sample a synthetic data set" style="text;html=1;align=center;verticalAlign=middle;resizable=0;points=[];autosize=1;strokeColor=none;fillColor=none;fontSize=18;" parent="1" vertex="1">
          <mxGeometry x="275" y="-5" width="260" height="40" as="geometry" />
        </mxCell>
        <mxCell id="1hxr5BAmj0VXV3kwIrot-26" value="3: Invoke &lt;i&gt;TempoBench&lt;/i&gt;" style="text;html=1;align=center;verticalAlign=middle;resizable=0;points=[];autosize=1;strokeColor=none;fillColor=none;fontSize=18;" parent="1" vertex="1">
          <mxGeometry x="370" y="95" width="210" height="40" as="geometry" />
        </mxCell>
        <mxCell id="WZc31XV6oDD110tjK4yp-1" style="edgeStyle=orthogonalEdgeStyle;rounded=0;orthogonalLoop=1;jettySize=auto;html=1;" edge="1" parent="1">
          <mxGeometry relative="1" as="geometry">
            <mxPoint x="269.0018747458317" y="-9.25" as="sourcePoint" />
            <mxPoint x="540" y="-9" as="targetPoint" />
            <Array as="points">
              <mxPoint x="405" y="-9.5" />
              <mxPoint x="540" y="-8.5" />
            </Array>
          </mxGeometry>
        </mxCell>
        <mxCell id="WZc31XV6oDD110tjK4yp-2" style="edgeStyle=orthogonalEdgeStyle;rounded=0;orthogonalLoop=1;jettySize=auto;html=1;entryX=0.897;entryY=0;entryDx=0;entryDy=0;entryPerimeter=0;" edge="1" parent="1" source="v-tDvrIkVeG2lgE-9QKy-2" target="v-tDvrIkVeG2lgE-9QKy-3">
          <mxGeometry relative="1" as="geometry" />
        </mxCell>
        <mxCell id="WZc31XV6oDD110tjK4yp-3" style="edgeStyle=orthogonalEdgeStyle;rounded=0;orthogonalLoop=1;jettySize=auto;html=1;entryX=0.5;entryY=0;entryDx=0;entryDy=0;entryPerimeter=0;" edge="1" parent="1" source="v-tDvrIkVeG2lgE-9QKy-3" target="v-tDvrIkVeG2lgE-9QKy-9">
          <mxGeometry relative="1" as="geometry" />
        </mxCell>
        <mxCell id="WZc31XV6oDD110tjK4yp-4" style="edgeStyle=orthogonalEdgeStyle;rounded=0;orthogonalLoop=1;jettySize=auto;html=1;entryX=0.425;entryY=0.035;entryDx=0;entryDy=0;entryPerimeter=0;" edge="1" parent="1">
          <mxGeometry relative="1" as="geometry">
            <mxPoint x="390" y="520" as="sourcePoint" />
            <mxPoint x="492.5" y="639.9999999999997" as="targetPoint" />
            <Array as="points">
              <mxPoint x="390" y="580" />
              <mxPoint x="493" y="580" />
            </Array>
          </mxGeometry>
        </mxCell>
      </root>
    </mxGraphModel>
  </diagram>
</mxfile>
